Coordinates
version=1
nRows=21
nColumns=28
inDegrees=yes

Units are S.I. units (second, meters, Newtons, ...)
Angles are in degrees.

endheader
time	pelvis_tilt	pelvis_list	pelvis_rotation	pelvis_tx	pelvis_ty	pelvis_tz	hip_flexion_r	hip_adduction_r	hip_rotation_r	knee_angle_r	ankle_angle_r	subtalar_angle_r	mtp_angle_r	hip_flexion_l	hip_adduction_l	hip_rotation_l	knee_angle_l	socket_flexion	socket_adduction	socket_rotation	socket_tx	socket_ty	socket_tz	foot_flex	lumbar_extension	lumbar_bending	lumbar_rotation
      0.97916667	      6.62654266	      0.20274918	     -4.71231679	      0.40212258	      1.02778975	      0.29277006	     -0.83454045	      6.81635488	      9.35659677	    -17.50633245	      9.14542230	    -17.01999333	     20.77920918	      7.73339113	     -2.65303028	     -0.15599178	    -71.65969132	    -11.23002064	      3.98770279	     11.49833936	      0.00000000	      0.03536819	      0.00000000	      3.21825958	    -15.25583128	     -1.67894214	     11.74162066
      0.98333333	      6.60628857	      0.28764124	     -5.01504216	      0.40669738	      1.02840611	      0.29326479	     -1.23512285	      6.61764493	      9.36671045	    -17.21765446	      9.17055159	    -16.61055097	     20.91106383	      8.26740317	     -2.56114754	     -0.07838635	    -71.32862186	    -11.23095949	      4.04722949	     11.41960960	      0.00000000	      0.03515157	      0.00000000	      3.22420045	    -15.24680904	     -1.85149383	     11.95028056
      0.98750000	      6.57962852	      0.35782456	     -5.31406631	      0.41128777	      1.02898621	      0.29372461	     -1.63056981	      6.42779704	      9.34988733	    -16.92231846	      9.19178938	    -16.08120957	     21.13828380	      8.80351544	     -2.48597275	     -0.00773751	    -70.97517936	    -11.22883532	      4.08387472	     11.35197554	      0.00000000	      0.03499051	      0.00000000	      3.25896890	    -15.21925716	     -2.00179647	     12.24919027
      0.99166667	      6.56009270	      0.40529626	     -5.69816882	      0.41594791	      1.02946047	      0.29436444	     -1.92196642	      6.26702307	      9.24381511	    -16.86985824	      9.20361484	    -15.91485467	     21.14572963	      9.16664787	     -2.42617599	      0.05305989	    -70.37162345	    -11.21596324	      4.16541068	     11.26901127	      0.00000000	      0.03398205	      0.00000000	      3.29007344	    -15.17302515	     -2.12306876	     12.27523789
      0.99583333	      6.51086132	      0.55310250	     -5.95593750	      0.42039267	      1.02992686	      0.29463724	     -2.20671356	      5.94080293	      8.93245129	    -16.65184788	      9.36746913	    -14.31329308	     22.97012572	      9.82187708	     -2.26675056	      0.10441722	    -70.08697566	    -11.22225623	      4.13080014	     11.21076697	      0.00000000	      0.03430771	      0.00000000	      3.24430463	    -15.15208249	     -2.39016068	     12.86493217
      1.00000000	      6.46413871	      0.56726093	     -6.19987206	      0.42486246	      1.03041042	      0.29505532	     -2.58658540	      5.82691740	      8.94498160	    -16.33285272	      9.29951872	    -14.07785087	     23.04166528	     10.34792434	     -2.22616308	      0.30581062	    -69.60828906	    -11.21926830	      4.19659346	     11.10929017	      0.00000000	      0.03397190	      0.00000000	      3.23880095	    -15.12715277	     -2.46930807	     12.98015086
      1.00416667	      6.42963734	      0.59039292	     -6.52630525	      0.42932421	      1.03081931	      0.29560561	     -2.88133127	      5.69833039	      8.90059617	    -16.21125722	      9.28802355	    -13.92035839	     23.03797779	     10.76899835	     -2.19355327	      0.42802619	    -68.98362255	    -11.20739811	      4.24320644	     11.04495100	      0.00000000	      0.03320848	      0.00000000	      3.22340111	    -15.11723049	     -2.56241090	     13.01799443
      1.00833333	      6.38240648	      0.59692818	     -6.72296262	      0.43363427	      1.03127460	      0.29597001	     -3.30242145	      5.60337858	      9.03127312	    -15.79273013	      9.25653197	    -13.56022567	     23.10440536	     11.35735080	     -2.16782001	      0.64471743	    -68.54601610	    -11.21015903	      4.25552767	     10.98023136	      0.00000000	      0.03324031	      0.00000000	      3.14535205	    -15.11888454	     -2.62603762	     13.21925554
      1.01250000	      6.33413065	      0.59096527	     -7.15067742	      0.43836434	      1.03156644	      0.29652477	     -3.52178362	      5.46933968	      8.82834662	    -15.81196037	      9.25624405	    -13.50117440	     23.06080340	     11.62356305	     -2.16524036	      0.67461036	    -67.68152219	    -11.17855394	      4.28744101	     10.88262329	      0.00000000	      0.03191925	      0.00000000	      3.29714121	    -15.05331878	     -2.63677895	     13.20121228
      1.01666667	      6.25240695	      0.48097988	     -7.20910213	      0.44256458	      1.03197949	      0.29676446	     -4.02627846	      5.52186339	      9.07182265	    -15.16423256	      9.13449794	    -12.84969357	     23.27465589	     12.34022787	     -2.27028335	      1.01896456	    -67.37337141	    -11.19891077	      4.25751631	     10.82543378	      0.00000000	      0.03240654	      0.00000000	      3.22318648	    -15.03694777	     -2.64011034	     13.68587415
      1.02083333	      6.19945650	      0.45970051	     -7.49663962	      0.44695371	      1.03228426	      0.29724685	     -4.32203456	      5.44145035	      9.08738510	    -14.99918068	      9.11204070	    -12.58321858	     23.34701502	     12.77461644	     -2.28460990	      1.18054779	    -66.67003208	    -11.18675271	      4.26116273	     10.75908440	      0.00000000	      0.03183072	      0.00000000	      3.11935022	    -15.01168238	     -2.68468809	     13.81389877
      1.02500000	      6.02805724	      0.39094620	     -7.75499974	      0.45145604	      1.03235043	      0.29761534	     -4.49380641	      5.39730574	      8.92748328	    -14.78939150	      8.77126119	    -12.04277071	     25.38167818	     13.37213032	     -2.39911214	      1.25858345	    -66.06991848	    -11.18458830	      4.14406994	     10.77603414	      0.00000000	      0.03147754	      0.00000000	      3.16593368	    -14.85859874	     -2.66454711	     14.18621156
      1.02916667	      5.97120145	      0.31868054	     -7.97356186	      0.45582443	      1.03260028	      0.29796407	     -4.83993343	      5.37452080	      8.96599960	    -14.52325971	      8.73940600	    -11.78154093	     25.38682696	     13.81655251	     -2.45738672	      1.48223634	    -65.36357525	    -11.17318499	      4.11770090	     10.69866459	      0.00000000	      0.03100470	      0.00000000	      3.15122906	    -14.85000956	     -2.64540188	     14.30314365
      1.03333333	      5.91920540	      0.28671753	     -8.24973056	      0.46018043	      1.03279911	      0.29845487	     -5.10088120	      5.31416661	      8.95656246	    -14.43849235	      8.72788508	    -11.60494125	     25.35851237	     14.18439466	     -2.48658942	      1.66238270	    -64.52050467	    -11.14433325	      4.11881925	     10.64353528	      0.00000000	      0.03021451	      0.00000000	      3.05436424	    -14.82923222	     -2.68687493	     14.34331677
      1.03750000	      5.91078796	      0.22035602	     -8.44252678	      0.46402891	      1.03302276	      0.29873561	     -5.36680498	      5.28967524	      8.91030178	    -14.37934509	      8.72603840	    -11.56027586	     25.36867738	     14.76654090	     -2.58435378	      1.74952592	    -64.07228730	    -11.16139019	      3.94302302	     10.62070813	      0.00000000	      0.03076621	      0.00000000	      3.10042604	    -14.99913948	     -2.66666021	     14.37710436
      1.04166667	      5.69306750	     -0.00598209	     -8.57722956	      0.46905814	      1.03301796	      0.29909394	     -5.75376825	      5.45503029	      9.02113017	    -13.80262486	      8.60351611	    -11.17537169	     25.43297214	     15.18804216	     -2.87357079	      1.96724878	    -63.12186109	    -11.12915790	      3.77356737	     10.79715751	      0.00000000	      0.02953114	      0.00000000	      3.07775257	    -14.71084428	     -2.43433584	     14.58144911
      1.04583333	      5.69001295	     -0.07794102	     -8.76309742	      0.47282760	      1.03317921	      0.29933764	     -5.99743228	      5.44103083	      8.99207765	    -13.79193396	      8.58624501	    -11.13122765	     25.44213393	     15.75107116	     -2.97320063	      2.04171712	    -62.63474222	    -11.14048594	      3.59788391	     10.75879006	      0.00000000	      0.03006269	      0.00000000	      3.10092466	    -14.88746625	     -2.42103484	     14.61202510
      1.05000000	      5.46671063	     -0.31746469	     -8.96451232	      0.47775431	      1.03306997	      0.29978029	     -6.29713089	      5.62325057	      9.11778134	    -13.38139823	      8.44244887	    -10.78508712	     25.50148715	     16.07997084	     -3.28858389	      2.23137708	    -61.50036083	    -11.08386608	      3.45012931	     10.94290635	      0.00000000	      0.02845095	      0.00000000	      3.01106018	    -14.61578422	     -2.16466341	     14.80009893
      1.05416667	      5.46383270	     -0.39616595	     -9.13705070	      0.48147425	      1.03315860	      0.30000989	     -6.53604966	      5.61529634	      9.09027373	    -13.38225432	      8.43127659	    -10.74899516	     25.51005536	     16.64298033	     -3.39269886	      2.29830196	    -61.01574832	    -11.10879037	      3.24967234	     10.88755249	      0.00000000	      0.02903865	      0.00000000	      3.03480659	    -14.80212707	     -2.16829315	     14.82745831
      1.05833333	      5.21642744	     -0.67919322	     -9.31518739	      0.48640912	      1.03295280	      0.30040876	     -6.81452584	      5.84873695	      9.23000086	    -12.98468846	      8.30093804	    -10.41536217	     25.57246108	     16.94355875	     -3.77720219	      2.46054193	    -59.76643472	    -11.01253111	      3.06712751	     11.14269896	      0.00000000	      0.02716864	      0.00000000	      2.92305266	    -14.50789429	     -1.84398265	     15.02630668
      1.06250000	      5.07134139	     -0.89485323	     -9.50194620	      0.49062654	      1.03283087	      0.30066450	     -7.05373207	      6.00110856	      9.37001501	    -12.79029553	      8.19240285	    -10.20046054	     25.61984279	     17.38658131	     -4.06733873	      2.53095632	    -58.86693903	    -10.94437132	      2.84305268	     11.23589191	      0.00000000	      0.02649937	      0.00000000	      2.86697350	    -14.46926461	     -1.61709896	     15.19117592
